Coordinates
version=1
nRows=32
nColumns=22
inDegrees=yes

Units are S.I. units (second, meters, Newtons, ...)
If the header above contains a line with 'inDegrees', this indicates whether rotational values are in degrees (yes) or radians (no).

endheader
time	pelvis_tilt	pelvis_list	pelvis_rotation	pelvis_tx	pelvis_ty	pelvis_tz	hip_flexion_r	hip_adduction_r	hip_rotation_r	knee_angle_r	ankle_angle_r	subtalar_angle_r	hip_flexion_l	hip_adduction_l	hip_rotation_l	knee_angle_l	ankle_angle_l	subtalar_angle_l	lumbar_extension	lumbar_bending	lumbar_rotation
      3.07000000	      1.00101085	      4.45292748	    178.71193008	      0.01495774	      0.89853375	     -0.60850270	    -16.15044459	     -0.43341303	     -7.01009414	    -25.13716782	     -1.15859037	     12.78938115	     30.65841473	      0.03614164	    -15.47838170	    -31.60533457	      4.63164432	    -17.06040168	      0.10037092	     -4.30264927	      6.62955604
      3.08000000	      1.00829206	      4.28646654	    179.40308119	      0.00362844	      0.90034158	     -0.60544543	    -14.98520844	     -0.77772920	     -6.78562042	    -27.83319517	     -3.83234757	     12.93045292	     29.96715164	      0.72202706	    -14.85868359	    -31.63469280	      5.14842168	    -16.82997384	      0.32395108	     -4.62682772	      6.54248673
      3.09000000	      0.98318666	      4.16047004	    180.03693372	     -0.00730305	      0.90213913	     -0.60241095	    -13.60470487	     -1.10590575	     -6.44644864	    -30.81300347	     -6.55245261	     12.80274251	     29.19460728	      1.31425756	    -14.36282131	    -31.57383232	      5.64920399	    -16.63220049	      0.44400609	     -4.89087418	      6.49714099
      3.10000000	      0.97063318	      4.05541393	    180.61145051	     -0.01780892	      0.90379224	     -0.59941773	    -11.96752916	     -1.43090197	     -6.00929301	    -34.05664558	     -9.23981694	     12.47475708	     28.40340664	      1.83611282	    -13.97778559	    -31.43757343	      6.17997253	    -16.42403936	      0.51441905	     -5.11596102	      6.47762342
      3.11000000	      0.95740794	      3.93422784	    181.14162309	     -0.02790361	      0.90528409	     -0.59642811	    -10.11542342	     -1.79996726	     -5.56247964	    -37.51141880	    -11.81774032	     11.93630381	     27.57686614	      2.33549893	    -13.70660209	    -31.21129996	      6.68861580	    -16.25145474	      0.51963794	     -5.34073582	      6.45488099
      3.12000000	      0.96245917	      3.76430503	    181.64533491	     -0.03761242	      0.90654804	     -0.59342418	     -8.06641931	     -2.23791667	     -5.11977225	    -41.10480509	    -14.14433530	     11.18361779	     26.74227048	      2.86815901	    -13.49446490	    -30.90659163	      7.22955544	    -16.11135763	      0.48732409	     -5.60764640	      6.39974236
      3.13000000	      0.94771145	      3.52720924	    182.15512136	     -0.04697612	      0.90763702	     -0.59033255	     -5.90981616	     -2.77749812	     -4.74837328	    -44.74847322	    -16.13941754	     10.37534335	     25.86774799	      3.45998079	    -13.34384640	    -30.53952728	      7.71487245	    -16.02585223	      0.37121286	     -5.93218540	      6.29732676
      3.14000000	      0.93194117	      3.22506669	    182.69617932	     -0.05603643	      0.90852899	     -0.58711934	     -3.67314161	     -3.40480745	     -4.42245743	    -48.35636402	    -17.65346668	      9.53744975	     24.97701604	      4.12801427	    -13.19407189	    -30.11997993	      8.16601272	    -15.97419062	      0.20076839	     -6.31304074	      6.11716906
      3.15000000	      0.91558529	      2.87167698	    183.29847605	     -0.06481700	      0.90924483	     -0.58373219	     -1.39746302	     -4.09921211	     -4.13746666	    -51.85360391	    -18.58466573	      8.71676193	     24.08154414	      4.87344144	    -12.98456627	    -29.66968410	      8.56767616	    -15.94521472	     -0.02001117	     -6.73371383	      5.86087845
      3.16000000	      0.91087175	      2.48445547	    183.98020588	     -0.07336912	      0.90982012	     -0.58015471	      0.89175738	     -4.82058825	     -3.84525543	    -55.17226083	    -18.87657458	      7.97061542	     23.18702105	      5.68704779	    -12.67482912	    -29.18382667	      8.92586106	    -15.92806073	     -0.26677802	     -7.17391004	      5.48656815
      3.17000000	      0.91816151	      2.08850120	    184.76492399	     -0.08170810	      0.91029248	     -0.57634886	      3.17122204	     -5.54335705	     -3.56005820	    -58.26870494	    -18.56173547	      7.34896782	     22.30373875	      6.54819890	    -12.22305704	    -28.68982627	      9.22615464	    -15.92142809	     -0.53457845	     -7.60462766	      5.00374235
      3.18000000	      0.93692516	      1.70436803	    185.65915254	     -0.08987714	      0.91072148	     -0.57229625	      5.41489159	     -6.23454519	     -3.25786109	    -61.09595252	    -17.69329244	      6.94979325	     21.41091276	      7.43908803	    -11.60033371	    -28.16393220	      9.48004149	    -15.91108870	     -0.81202919	     -7.99811568	      4.40106028
      3.19000000	      0.97758573	      1.35448140	    186.66337861	     -0.09782963	      0.91109565	     -0.56801419	      7.63625014	     -6.87658696	     -2.94852792	    -63.64786917	    -16.38108612	      6.63876539	     20.54947131	      8.32760039	    -10.79942485	    -27.66610587	      9.67633521	    -15.91834708	     -1.09036570	     -8.33474056	      3.74264788
      3.20000000	      1.02847633	      1.05715693	    187.76823787	     -0.10564087	      0.91149328	     -0.56351082	      9.80005806	     -7.43689939	     -2.60871409	    -65.87614355	    -14.76983855	      6.42013591	     19.66935699	      9.18348504	     -9.85232295	    -27.14256077	      9.83981539	    -15.93097310	     -1.36167259	     -8.58859516	      2.99224804
      3.21000000	      1.08557448	      0.81947008	    188.95812974	     -0.11330594	      0.91193139	     -0.55881727	     11.90189144	     -7.90836229	     -2.23322216	    -67.77252974	    -12.98861098	      6.22848689	     18.76322811	      9.98668793	     -8.78477889	    -26.58995898	      9.97690170	    -15.94696655	     -1.62095569	     -8.75496683	      2.19168675
      3.22000000	      1.14214548	      0.64518298	    190.21834619	     -0.12081615	      0.91242708	     -0.55396834	     13.93153319	     -8.27806064	     -1.80714230	    -69.32422295	    -11.14730870	      6.04279863	     17.81760068	     10.71850218	     -7.62831389	    -25.99559693	     10.08724982	    -15.95846990	     -1.87362420	     -8.83252883	      1.35751718
      3.23000000	      1.20594221	      0.53332592	    191.52427082	     -0.12816440	      0.91295360	     -0.54901197	     15.89874047	     -8.54711689	     -1.32058629	    -70.53183984	     -9.30475495	      5.71731932	     16.84473695	     11.36411302	     -6.43559298	    -25.35970165	     10.22795578	    -15.98685662	     -2.10224530	     -8.82708435	      0.51665099
      3.24000000	      1.26136611	      0.47809831	    192.87439073	     -0.13534198	      0.91355594	     -0.54395273	     17.77370574	     -8.71497844	     -0.77155117	    -71.38047864	     -7.55935527	      5.46624233	     15.81829984	     11.92773756	     -5.17709841	    -24.65510836	     10.28697123	    -15.99317708	     -2.32520010	     -8.74767985	     -0.31907700
      3.25000000	      1.30496488	      0.46813747	    194.23740263	     -0.14239590	      0.91419018	     -0.53884816	     19.54633405	     -8.79196726	     -0.15491757	    -71.87730487	     -5.88767106	      5.01295620	     14.74583667	     12.39777157	     -3.93387695	    -23.90244036	     10.40533832	    -16.01528991	     -2.53580585	     -8.61043463	     -1.13085458
      3.26000000	      1.33967700	      0.49713527	    195.62753642	     -0.14932068	      0.91486840	     -0.53368761	     21.20456943	     -8.79000815	      0.51180749	    -72.01653165	     -4.39130838	      4.62973597	     13.62909580	     12.78921674	     -2.64727476	    -23.09074851	     10.44340783	    -16.01899855	     -2.73530318	     -8.42889863	     -1.92651662
      3.27000000	      1.33920617	      0.54756960	    197.02074809	     -0.15618966	      0.91559429	     -0.52852483	     22.70276913	     -8.72221472	      1.21734524	    -71.80064687	     -2.99736117	      4.09813754	     12.44553695	     13.09472179	     -1.38387195	    -22.23503637	     10.53476125	    -16.02684103	     -2.94966876	     -8.22089081	     -2.69242599
      3.28000000	      1.31844112	      0.62124051	    198.43621141	     -0.16299852	      0.91634348	     -0.52333653	     24.04765941	     -8.60688587	      1.92557796	    -71.23789865	     -1.76410590	      3.61977147	     11.21932533	     13.32474361	     -0.07984860	    -21.34464587	     10.57780974	    -16.03005037	     -3.16355783	     -7.99171497	     -3.44630118
      3.29000000	      1.27287832	      0.71234207	    199.87259157	     -0.16977667	      0.91711058	     -0.51812759	     25.22391619	     -8.46199601	      2.60732393	    -70.33538786	     -0.65796771	      3.18501742	      9.95387325	     13.47920838	      1.25843987	    -20.43406125	     10.60157264	    -16.04040920	     -3.38160226	     -7.74927183	     -4.19262364
      3.30000000	      1.19861947	      0.82146217	    201.33914151	     -0.17651253	      0.91788395	     -0.51289116	     26.22840589	     -8.30552495	      3.21938728	    -69.11217551	      0.32439758	      2.82260806	      8.65510255	     13.55632433	      2.65204882	    -19.51437358	     10.58933423	    -16.06841474	     -3.61092114	     -7.49124375	     -4.94641689
      3.31000000	      1.10149205	      0.94131340	    202.83150328	     -0.18323034	      0.91864072	     -0.50761612	     27.06176312	     -8.15401008	      3.74474365	    -67.58155237	      1.22938797	      2.52583137	      7.33627117	     13.56254317	      4.08961342	    -18.60048355	     10.58253111	    -16.12058965	     -3.84290496	     -7.22690505	     -5.70673539
      3.32000000	      0.98280671	      1.07321418	    204.35478192	     -0.18993395	      0.91936481	     -0.50230784	     27.72800619	     -8.01167199	      4.15847513	    -65.76658736	      2.06992036	      2.29411787	      6.00866854	     13.49591128	      5.58917964	    -17.70530270	     10.57975936	    -16.19761205	     -4.07829708	     -6.95953573	     -6.47498245
      3.33000000	      0.84363251	      1.21642516	    205.90995692	     -0.19661211	      0.92004467	     -0.49693751	     28.23411711	     -7.88821244	      4.43349730	    -63.68496958	      2.83392966	      2.13464157	      4.68454536	     13.35742169	      7.13942659	    -16.84385511	     10.57994432	    -16.28709310	     -4.31544837	     -6.68136269	     -7.26932753
      3.34000000	      0.68883501	      1.37174762	    207.49488697	     -0.20326721	      0.92065691	     -0.49150414	     28.59513206	     -7.78095307	      4.55984872	    -61.36365720	      3.51144797	      2.05595266	      3.38143956	     13.14738705	      8.73011692	    -16.03189267	     10.59177515	    -16.37129550	     -4.54850469	     -6.39269983	     -8.08967929
      3.35000000	      0.51602131	      1.53563105	    209.09802956	     -0.20991047	      0.92119166	     -0.48601694	     28.82017459	     -7.67775138	      4.54311099	    -58.82924939	      4.09540191	      2.05578777	      2.10502604	     12.86691275	     10.33445482	    -15.27753237	     10.62936449	    -16.44735667	     -4.77917295	     -6.09477209	     -8.92650390
      3.36000000	      0.32775611	      1.70217234	    210.70578442	     -0.21654797	      0.92163215	     -0.48049048	     28.92486226	     -7.56804221	      4.39862324	    -56.10926163	      4.57146617	      2.14866536	      0.86039670	     12.52250500	     11.92538356	    -14.57964498	     10.69766507	    -16.51623293	     -5.00731379	     -5.79417373	     -9.76817012
      3.37000000	      0.12973998	      1.86767153	    212.30176801	     -0.22319536	      0.92196158	     -0.47492617	     28.92800537	     -7.44497830	      4.13709759	    -53.22674090	      4.91939879	      2.35981898	     -0.35160583	     12.11984828	     13.45815342	    -13.92244296	     10.78558569	    -16.57496966	     -5.22491124	     -5.49609907	    -10.60221421
      3.38000000	     -0.07433690	      2.02354352	    213.86041695	     -0.22984703	      0.92216354	     -0.46937643	     28.84803950	     -7.28555788	      3.81740660	    -50.20650424	      5.14050280	      2.70820900	     -1.52908103	     11.67308648	     14.93144464	    -13.30293348	     10.91002425	    -16.62094507	     -5.43813717	     -5.21405817	    -11.39578335
